<svg xmlns="http://www.w3.org/2000/svg" width="2000" height="2000" viewBox="0 0 2000 2000"><path fill="#080618" d="M 0,0 H2000 V2000 H0 z"/><g fill="#fff"><path d="M1082.37,923a77.87,77.87,0,1,1,0,155.74H880.25c-195.76,0-354.46-158.7-354.46-354.46s158.7-354.45,354.46-354.45h521.26a77.87,77.87,0,1,1,0,155.73H880.25c-109.75,0-198.72,89-198.72,198.72S770.5,923,880.25,923Z"/><path d="M922.8,1078.7a77.87,77.87,0,0,1,0-155.74h202.12c195.76,0,354.46,158.7,354.46,354.46s-158.7,354.46-354.46,354.46H603.66a77.87,77.87,0,0,1,0-155.74h521.26c109.75,0,198.72-89,198.72-198.72s-89-198.72-198.72-198.72Z"/><path fill-opacity=".5" d="m665.19 1600.46l-126.59-90.7 796.21-1111.16 126.59 90.71-796.21 1111.15"/></g></svg>